/* XPM */
static char * pastetotab_options_xpm[] = {
"48 48 495 2",
"  	c None",
". 	c #FEE493",
"+ 	c #FFE496",
"@ 	c #FEE496",
"# 	c #FFE391",
"$ 	c #FFDE73",
"% 	c #FFDE74",
"& 	c #FEDE73",
"* 	c #FEDE74",
"= 	c #FFD74E",
"- 	c #FED751",
"; 	c #FED752",
"> 	c #FFD856",
", 	c #FFD751",
"' 	c #FFCF26",
") 	c #FFD12D",
"! 	c #FFD12E",
"~ 	c #FFD12C",
"{ 	c #FEC90C",
"] 	c #FECB12",
"^ 	c #FECB11",
"/ 	c #FECA10",
"( 	c #FECA0E",
"_ 	c #FECA0F",
": 	c #FFE6A0",
"< 	c #FEE6A0",
"[ 	c #FDC407",
"} 	c #FDC406",
"| 	c #FDC308",
"1 	c #FDC208",
"2 	c #FFE49A",
"3 	c #FFE59B",
"4 	c #FFE49B",
"5 	c #FEE49B",
"6 	c #FCBE0C",
"7 	c #FCBE0B",
"8 	c #FFE499",
"9 	c #FBB70F",
"0 	c #FFE187",
"a 	c #FAB111",
"b 	c #FAB014",
"c 	c #FAB013",
"d 	c #FEE187",
"e 	c #FFE07D",
"f 	c #FFDF7D",
"g 	c #FEE07D",
"h 	c #FFDE72",
"i 	c #FFDC6B",
"j 	c #FEDC6B",
"k 	c #FFDA61",
"l 	c #FFD857",
"m 	c #FED857",
"n 	c #FFDA58",
"o 	c #FFD64F",
"p 	c #FFD84F",
"q 	c #D8B644",
"r 	c #D6B443",
"s 	c #FED64E",
"t 	c #FFDA50",
"u 	c #FFD94F",
"v 	c #FFD544",
"w 	c #FFE349",
"x 	c #000000",
"y 	c #FFDE47",
"z 	c #FFD645",
"A 	c #E8C23E",
"B 	c #B79A32",
"C 	c #E4BF3E",
"D 	c #FFDB46",
"E 	c #CBAA37",
"F 	c #BB9D33",
"G 	c #FDD444",
"H 	c #FFD33B",
"I 	c #FFE03F",
"J 	c #0F0C03",
"K 	c #FFE23F",
"L 	c #FFDB3D",
"M 	c #9E8324",
"N 	c #957C22",
"O 	c #FFEF43",
"P 	c #211B07",
"Q 	c #FFD63B",
"R 	c #FFDD3D",
"S 	c #FFDC3D",
"T 	c #FFDA3D",
"U 	c #FFD43C",
"V 	c #FED33B",
"W 	c #FFD231",
"X 	c #FFDF34",
"Y 	c #B19224",
"Z 	c #A58821",
"` 	c #FCCF30",
" .	c #A68920",
"..	c #41360E",
"+.	c #F0C62F",
"@.	c #332A09",
"#.	c #786319",
"$.	c #FED131",
"%.	c #866F1C",
"&.	c #91781E",
"*.	c #9E8220",
"=.	c #AC8E22",
"-.	c #F1C72F",
";.	c #FFD332",
">.	c #FFCF28",
",.	c #FFDC2B",
"'.	c #0F0C02",
").	c #917515",
"!.	c #010000",
"~.	c #8C7216",
"{.	c #B1901C",
"].	c #413409",
"^.	c #F0C325",
"/.	c #332908",
"(.	c #786111",
"_.	c #FACC28",
":.	c #110D01",
"<.	c #63500E",
"[.	c #0A0700",
"}.	c #B4921C",
"|.	c #FFD629",
"1.	c #FFCE1E",
"2.	c #FFDB20",
"3.	c #0F0C01",
"4.	c #F3C51D",
"5.	c #413507",
"6.	c #B79416",
"7.	c #9E8013",
"8.	c #FFE822",
"9.	c #302605",
"0.	c #FFD21F",
"a.	c #F7C81D",
"b.	c #342A06",
"c.	c #BF9A16",
"d.	c #8A7010",
"e.	c #FFD61F",
"f.	c #FFD31F",
"g.	c #FFD11F",
"h.	c #FFCC15",
"i.	c #FFD916",
"j.	c #FAC815",
"k.	c #453705",
"l.	c #B4900F",
"m.	c #987A0B",
"n.	c #FFE517",
"o.	c #282003",
"p.	c #FDCB13",
"q.	c #F7C614",
"r.	c #312703",
"s.	c #B4900E",
"t.	c #92750C",
"u.	c #FFD917",
"v.	c #86960B",
"w.	c #C2B00C",
"x.	c #FFCE15",
"y.	c #FECC15",
"z.	c #FFCB0B",
"A.	c #FFD80C",
"B.	c #F9C60B",
"C.	c #342902",
"D.	c #F2C10A",
"E.	c #534202",
"F.	c #070500",
"G.	c #C49C09",
"H.	c #B59007",
"I.	c #251D00",
"J.	c #1A1401",
"K.	c #FCC90B",
"L.	c #090700",
"M.	c #1C1501",
"N.	c #3B2E02",
"O.	c #DBAE09",
"P.	c #FFD50C",
"Q.	c #638503",
"R.	c #588519",
"S.	c #A7A204",
"T.	c #FFCE0A",
"U.	c #FECB0B",
"V.	c #FFC905",
"W.	c #FFCA05",
"X.	c #EAB904",
"Y.	c #E9B804",
"Z.	c #FEC805",
"`.	c #E7B604",
" +	c #EEBC04",
".+	c #F4C004",
"++	c #E8B704",
"@+	c #F8C405",
"#+	c #FCC705",
"$+	c #EFBC04",
"%+	c #2C2300",
"&+	c #FBC604",
"*+	c #F1BE04",
"=+	c #FDC805",
"-+	c #FFCF05",
";+	c #5F8000",
">+	c #AFCC9A",
",+	c #7EA349",
"'+	c #809100",
")+	c #FFCB04",
"!+	c #FFC705",
"~+	c #F7C105",
"{+	c #2C2201",
"]+	c #FFD606",
"^+	c #FFCD06",
"/+	c #5E7F00",
"(+	c #B5D19F",
"_+	c #C9DFB3",
":+	c #8EB263",
"<+	c #628400",
"[+	c #F7C405",
"}+	c #FDC507",
"|+	c #FEC507",
"1+	c #FEC607",
"2+	c #FFCA07",
"3+	c #FFC907",
"4+	c #FFCC07",
"5+	c #5F7F00",
"6+	c #B2CF9B",
"7+	c #9EC777",
"8+	c #BAD89F",
"9+	c #9ABE79",
"0+	c #4C7B06",
"a+	c #FEC308",
"b+	c #FEC408",
"c+	c #EDBD07",
"d+	c #EDBC06",
"e+	c #FAC206",
"f+	c #5A7C00",
"g+	c #B1CE98",
"h+	c #98C46E",
"i+	c #8FBE61",
"j+	c #AED08D",
"k+	c #A4C585",
"l+	c #4A7F18",
"m+	c #FDC109",
"n+	c #FFC609",
"o+	c #326F03",
"p+	c #47801C",
"q+	c #48811E",
"r+	c #49811F",
"s+	c #48811F",
"t+	c #467D15",
"u+	c #B5D19B",
"v+	c #94C168",
"w+	c #8BBC5B",
"x+	c #88BA57",
"y+	c #A1C979",
"z+	c #A6C786",
"A+	c #5B8C2C",
"B+	c #FCC00A",
"C+	c #FFC40A",
"D+	c #3C7200",
"E+	c #C3DEA8",
"F+	c #B4D694",
"G+	c #B7D698",
"H+	c #B8D799",
"I+	c #B9D89B",
"J+	c #BAD99C",
"K+	c #BAD99D",
"L+	c #BBDA9E",
"M+	c #B6D699",
"N+	c #8DBD5E",
"O+	c #86BA55",
"P+	c #84B852",
"Q+	c #82B74E",
"R+	c #95C26A",
"S+	c #A5C883",
"T+	c #6A983C",
"U+	c #3F7809",
"V+	c #FDBE0B",
"W+	c #FFC20B",
"X+	c #B7D699",
"Y+	c #73AE3A",
"Z+	c #79B242",
"`+	c #7CB345",
" @	c #7DB448",
".@	c #7EB549",
"+@	c #80B64A",
"@@	c #80B74B",
"#@	c #80B74A",
"$@	c #84B94F",
"%@	c #82B84D",
"&@	c #80B74C",
"*@	c #7BB344",
"=@	c #A2C87D",
"-@	c #73A147",
";@	c #447B10",
">@	c #FDBC0C",
",@	c #FFC00C",
"'@	c #3C7201",
")@	c #B5D596",
"!@	c #73AE39",
"~@	c #78B141",
"{@	c #7CB446",
"]@	c #7EB548",
"^@	c #80B849",
"/@	c #81BA4A",
"(@	c #82BA4A",
"_@	c #81BA49",
":@	c #7FB846",
"<@	c #77B33D",
"[@	c #71AE35",
"}@	c #6BAA2D",
"|@	c #79B241",
"1@	c #9AC570",
"2@	c #7EA954",
"3@	c #4A8017",
"4@	c #FCBA0D",
"5@	c #FFBE0D",
"6@	c #B4D494",
"7@	c #6EAC33",
"8@	c #73AE3B",
"9@	c #76B03D",
"0@	c #79B440",
"a@	c #7CB742",
"b@	c #7EB943",
"c@	c #80BB46",
"d@	c #7FBC45",
"e@	c #79B83B",
"f@	c #6FB22C",
"g@	c #67AE21",
"h@	c #60A818",
"i@	c #5AA412",
"j@	c #56A00E",
"k@	c #539C0C",
"l@	c #5FA31E",
"m@	c #85B952",
"n@	c #84AF5A",
"o@	c #568A26",
"p@	c #FBB80F",
"q@	c #FFBC0F",
"r@	c #B0D28E",
"s@	c #67A829",
"t@	c #6EAC32",
"u@	c #72B036",
"v@	c #73B235",
"w@	c #73B533",
"x@	c #71B52F",
"y@	c #6DB427",
"z@	c #67B11D",
"A@	c #61B015",
"B@	c #5BAC0C",
"C@	c #57A907",
"D@	c #56A606",
"E@	c #54A306",
"F@	c #519F05",
"G@	c #4F9B04",
"H@	c #479500",
"I@	c #5CA119",
"J@	c #A8CF82",
"K@	c #639434",
"L@	c #3B7405",
"M@	c #FCB710",
"N@	c #FFBB11",
"O@	c #A5CC80",
"P@	c #4F9907",
"Q@	c #559F0E",
"R@	c #59A411",
"S@	c #5BA811",
"T@	c #5DAB10",
"U@	c #5EAE10",
"V@	c #5EAF0C",
"W@	c #5CAF0A",
"X@	c #5DB00A",
"Y@	c #5CB00B",
"Z@	c #5BAE0A",
"`@	c #5AAB09",
" #	c #57A809",
".#	c #55A408",
"+#	c #4D9C00",
"@#	c #5FA41C",
"##	c #8CBD5C",
"$#	c #6B9C3B",
"%#	c #487F13",
"&#	c #FBB511",
"*#	c #FFB711",
"=#	c #A2CA7D",
"-#	c #499600",
";#	c #509E05",
">#	c #57A808",
",#	c #5AAC09",
"'#	c #5FB30C",
")#	c #61B50C",
"!#	c #60B50C",
"~#	c #5FB20B",
"{#	c #5DAF0B",
"]#	c #5AAC0A",
"^#	c #54A604",
"/#	c #6CB02A",
"(#	c #91C062",
"_#	c #619430",
":#	c #3F760A",
"<#	c #FAB312",
"[#	c #FBB312",
"}#	c #FAB212",
"|#	c #FFB112",
"1#	c #469600",
"2#	c #4F9E01",
"3#	c #52A402",
"4#	c #56A904",
"5#	c #59AF05",
"6#	c #5CB306",
"7#	c #5EB708",
"8#	c #60B908",
"9#	c #64BB0E",
"0#	c #63BA0D",
"a#	c #62B80D",
"b#	c #77BB34",
"c#	c #93C165",
"d#	c #598E26",
"e#	c #356B04",
"f#	c #FBB213",
"g#	c #FBB214",
"h#	c #F8AF13",
"i#	c #FDAF13",
"j#	c #A7CD82",
"k#	c #A4CC7D",
"l#	c #A6D07E",
"m#	c #A8D27F",
"n#	c #ABD67F",
"o#	c #ACD981",
"p#	c #AEDB81",
"q#	c #B0DD82",
"r#	c #B3DF87",
"s#	c #70C41D",
"t#	c #66BE0F",
"u#	c #63B80F",
"v#	c #81C33E",
"w#	c #94C167",
"x#	c #51871D",
"y#	c #FAAF15",
"z#	c #FBB015",
"A#	c #F8AD14",
"B#	c #FCAC14",
"C#	c #437504",
"D#	c #3B7201",
"E#	c #3B7202",
"F#	c #3B7101",
"G#	c #306900",
"H#	c #A0CF71",
"I#	c #73CA1E",
"J#	c #6AC411",
"K#	c #6AC014",
"L#	c #8CCC4B",
"M#	c #92C064",
"N#	c #457B10",
"O#	c #F9AD16",
"P#	c #FAAD16",
"Q#	c #F8AC15",
"R#	c #F3A915",
"S#	c #F5A714",
"T#	c #EFA314",
"U#	c #E99E13",
"V#	c #E39B13",
"W#	c #DD9612",
"X#	c #D79212",
"Y#	c #D18E12",
"Z#	c #D68B12",
"`#	c #5A7200",
" $	c #A0D071",
".$	c #76CD1F",
"+$	c #71C91B",
"@$	c #98D35D",
"#$	c #8ABA5C",
"$$	c #376F06",
"%$	c #FAAC17",
"&$	c #F9AC17",
"*$	c #FAAD17",
"=$	c #F5A916",
"-$	c #EFA516",
";$	c #E9A115",
">$	c #E39D14",
",$	c #DD9913",
"'$	c #D79513",
")$	c #D29112",
"!$	c #CE8E12",
"~$	c #D48D13",
"{$	c #567100",
"]$	c #9FD171",
"^$	c #86D736",
"/$	c #A0D868",
"($	c #7EAF4A",
"_$	c #346800",
":$	c #356600",
"<$	c #A3D375",
"[$	c #A5D676",
"}$	c #6B9F36",
"|$	c #2C6300",
"1$	c #346B00",
"2$	c #83B454",
"3$	c #5E902C",
"4$	c #44720C",
"5$	c #407509",
"6$	c #467A10",
"                                        . + + @ + @ #                                           ",
"                                        $ $ % % & & *                                           ",
"                                      = - ;     > , ,                                           ",
"                                    ' ) ! )       ! ! ~                                         ",
"                            { ] ] ] ^ / / (       _ _ / ] ] ] /                                 ",
"                  : : <     [ } } } } } } } | 1 [ } } } } } } }       < : : :                   ",
"              2 3 4 4 5     6 6 6 6 6 6 6 6 6 7 6 6 6 6 6 6 6 6     3 4 4 4 4 8                 ",
"              # # # # #     9 9 9 9 9 9 9 9 9 9 9 9 9 9 9 9 9 9     # # # # # #                 ",
"              0 0 0 0 0 0   a b b b b b b b b b b b b b b b b c     0 d 0 0 0 0                 ",
"              e e e e e f                                         f e g e e e e                 ",
"              % % % % % * & h                                   $ & % % % % % %                 ",
"              i i i i i j i i i i j j j j j j j j j j j i j i j i j i i i i i i                 ",
"              k k k k k k k k k k k k k k k k k k k k k k k k k k k k k k k k k                 ",
"              l l l l l l l m n n m l l l l l l l l l l l l l l l l l l l l l l                 ",
"              o o o o o o o p q r p o s p t p s u t o o o o o o o o o o o o o o                 ",
"              v v v v v v v w x x y v z A B C D E F G v v v v v v v v v v v v v                 ",
"              H H H H H H H I J x K L L M x N O P x Q H R S T T U V H H H H H H                 ",
"              W W W W W W W X J x Y Z `  .x ..+.@.x #.$.%.&.*.=.-.;.W W W W W W                 ",
"              >.>.>.>.>.>.>.,.'.x ).!.~.{.x ].^./.x (._.x :.<.[.}.|.>.>.>.>.>.>.                ",
"              1.1.1.1.1.1.1.2.3.x 4.x 5.6.x 7.8.9.x 0.a.x b.c.x d.e.f.g.1.1.1.1.                ",
"              h.h.h.h.h.h.h.i.3.x j.x k.l.x m.n.o.x p.q.x r.s.x t.u.v.w.x.h.y.h.                ",
"              z.z.z.z.z.z.z.A.x x B.x C.D.E.F.G.H.I.J.K.x L.M.N.O.P.Q.R.S.T.z.U.                ",
"              V.V.V.V.V.V.V.W.X.Y.Z.`. +V..+++@+#+$+++@+x %+&+*+=+-+;+>+,+'+)+V.                ",
"              !+!+!+!+!+!+!+!+!+!+!+!+!+!+!+!+!+!+!+!+~+x {+]+!+!+^+/+(+_+:+<+[+                ",
"              }+}+}+}+}+}+}+}+}+}+}+}+}+}+}+}+}+}+}+|+1+2+3+}+|+|+4+5+6+7+8+9+0+                ",
"              a+a+a+a+a+a+a+a+a+a+a+a+a+a+a+a+a+a+b+c+d+d+d+d+d+d+e+f+g+h+i+j+k+l+              ",
"              m+m+m+m+m+m+m+m+m+m+m+m+m+m+m+m+m+m+n+o+p+q+q+q+q+r+s+t+u+v+w+x+y+z+A+            ",
"              B+B+B+B+B+B+B+B+B+B+B+B+B+B+B+B+B+B+C+D+E+F+G+H+I+J+K+L+M+N+O+P+Q+R+S+T+U+        ",
"              V+V+V+V+V+V+V+V+V+V+V+V+V+V+V+V+V+V+W+D+X+Y+Z+`+ @.@+@@@#@$@%@&@.@*@w+=@-@;@      ",
"              >@>@>@>@>@>@>@>@>@>@>@>@>@>@>@>@>@>@,@'@)@!@~@*@{@]@^@/@(@(@_@:@<@[@}@|@1@2@3@    ",
"              4@4@4@4@4@4@4@4@4@4@4@4@4@4@4@4@4@4@5@'@6@7@8@9@0@a@b@c@d@e@f@g@h@i@j@k@l@m@n@o@  ",
"              p@p@p@p@p@p@p@p@p@p@p@p@p@p@p@p@p@p@q@'@r@s@t@u@v@w@x@y@z@A@B@C@D@E@F@G@H@I@J@K@L@",
"              M@M@M@M@M@M@M@M@M@M@M@M@M@M@M@M@M@M@N@'@O@P@Q@R@S@T@U@V@W@X@Y@Z@`@ #.#+#@###$#%#  ",
"              &#&#&#&#&#&#&#&#&#&#&#&#&#&#&#&#&#&#*#'@=#-#;#E@>#,#X@'#)#)#!#~#{#]#^#/#(#_#:#    ",
"              <#<#<#<#<#<#<#<#<#<#<#<#<#<#<#<#[#}#|#'@=#1#2#3#4#5#6#7#8#9#0#a#'#W@b#c#d#e#      ",
"              f#f#f#f#f#f#f#f#f#f#f#f#f#f#f#f#g#h#i#'@j#k#l#m#n#o#p#q#r#s#t#9#u#v#w#x#          ",
"              y#y#y#y#y#y#y#y#y#y#y#y#y#y#y#y#z#A#B#C#D#E#D#F#F#F#F#G#H#I#J#K#L#M#N#            ",
"              O#O#O#O#O#O#O#O#O#O#O#O#O#O#O#O#P#Q#R#S#T#U#V#W#X#Y#Z#`# $.$+$@$#$$$              ",
"                %$&$%$%$%$%$%$%$%$%$%$%$%$%$%$&$*$=$-$;$>$,$'$)$!$~${$]$^$/$($_$                ",
"                                                                    :$<$[$}$|$                  ",
"                                                                    1$2$3$4$                    ",
"                                                                    5$6$                        ",
"                                                                                                ",
"                                                                                                ",
"                                                                                                ",
"                                                                                                ",
"                                                                                                ",
"                                                                                                "};
